HIERARCHY
ROOT hips
{
  OFFSET 0 9.313263304106702 1.2146308026317778
  CHANNELS 6 Xposition Yposition Zposition Yrotation Xrotation Zrotation
  JOINT spine
  {
    OFFSET -6.402521e-31 0.5173342420023708 0
    CHANNELS 3 Yrotation Xrotation Zrotation
    JOINT chest
    {
      OFFSET 0 1.130544299341115 0
      CHANNELS 3 Yrotation Xrotation Zrotation
      JOINT upperChest
      {
        OFFSET 0 1.0863555061129995 0
        CHANNELS 3 Yrotation Xrotation Zrotation
        JOINT neck
        {
          OFFSET 0 1.3773706506454462 0
          CHANNELS 3 Yrotation Xrotation Zrotation
          JOINT head
          {
            OFFSET 0 0.7374408940073979 0
            CHANNELS 3 Yrotation Xrotation Zrotation
            JOINT leftEye
            {
              OFFSET 0.25066580148932727 0.6408406698778757 0.15963719178883284
              CHANNELS 3 Yrotation Xrotation Zrotation
              End Site
              {
                OFFSET 0.25066580148932727 0.6408406698778757 0.15963719178883284
              }
            }
            JOINT rightEye
            {
              OFFSET -0.25066576739704244 0.6408406384191823 0.15963727561643756
              CHANNELS 3 Yrotation Xrotation Zrotation
              End Site
              {
                OFFSET -0.25066576739704244 0.6408406384191823 0.15963727561643756
              }
            }
          }
        }
        JOINT leftShoulder
        {
          OFFSET 0.3761817444281191 1.0539491987447769 0
          CHANNELS 3 Yrotation Xrotation Zrotation
          JOINT leftUpperArm
          {
            OFFSET 0.8702844380000002 0 0
            CHANNELS 3 Yrotation Xrotation Zrotation
            JOINT leftLowerArm
            {
              OFFSET 2.198527310000323 0 0
              CHANNELS 3 Yrotation Xrotation Zrotation
              JOINT leftHand
              {
                OFFSET 2.146852313968281 0 0
                CHANNELS 3 Yrotation Xrotation Zrotation
                JOINT leftIndexProximal
                {
                  OFFSET 0.6585177834681599 0.07380250427007962 0.18382213159631788
                  CHANNELS 3 Yrotation Xrotation Zrotation
                  JOINT leftIndexIntermediate
                  {
                    OFFSET 0.3323021288626682 -0.009606893929485771 -0.012820872253340998
                    CHANNELS 3 Yrotation Xrotation Zrotation
                    JOINT leftIndexDistal
                    {
                      OFFSET 0.2045908926985518 -0.0071133989147997845 -0.006828784783599051
                      CHANNELS 3 Yrotation Xrotation Zrotation
                      End Site
                      {
                        OFFSET 0.2045908926985518 -0.0071133989147997845 -0.006828784783599051
                      }
                    }
                  }
                }
                JOINT leftLittleProximal
                {
                  OFFSET 0.6110054258835662 0.07380246363125398 -0.29175655876064077
                  CHANNELS 3 Yrotation Xrotation Zrotation
                  JOINT leftLittleIntermediate
                  {
                    OFFSET 0.3144281999999998 -2.5124724523095665e-9 1.8658118799974588e-7
                    CHANNELS 3 Yrotation Xrotation Zrotation
                    JOINT leftLittleDistal
                    {
                      OFFSET 0.18116185580251631 0.002815456192251098 0.0034826415518049436
                      CHANNELS 3 Yrotation Xrotation Zrotation
                      End Site
                      {
                        OFFSET 0.18116185580251631 0.002815456192251098 0.0034826415518049436
                      }
                    }
                  }
                }
                JOINT leftMiddleProximal
                {
                  OFFSET 0.6637478005691111 0.07380246480054087 0.02046981859247815
                  CHANNELS 3 Yrotation Xrotation Zrotation
                  JOINT leftMiddleIntermediate
                  {
                    OFFSET 0.3705733999999994 -2.9611069152224445e-9 9.35054791928458e-8
                    CHANNELS 3 Yrotation Xrotation Zrotation
                    JOINT leftMiddleDistal
                    {
                      OFFSET 0.22861063500000056 -1.82673876025774e-9 -1.6740782024515788e-7
                      CHANNELS 3 Yrotation Xrotation Zrotation
                      End Site
                      {
                        OFFSET 0.22861063500000056 -1.82673876025774e-9 -1.6740782024515788e-7
                      }
                    }
                  }
                }
                JOINT leftRingProximal
                {
                  OFFSET 0.6561845547265777 0.07380246406440083 -0.13588087571513918
                  CHANNELS 3 Yrotation Xrotation Zrotation
                  JOINT leftRingIntermediate
                  {
                    OFFSET 0.3437531000000005 -2.746796123886952e-9 1.4935781944558357e-7
                    CHANNELS 3 Yrotation Xrotation Zrotation
                    JOINT leftRingDistal
                    {
                      OFFSET 0.1983118991198174 -0.002467117924596085 -0.004538141969590015
                      CHANNELS 3 Yrotation Xrotation Zrotation
                      End Site
                      {
                        OFFSET 0.1983118991198174 -0.002467117924596085 -0.004538141969590015
                      }
                    }
                  }
                }
                JOINT leftThumbProximal
                {
                  OFFSET 0.09767004258864787 -0.14930060425447422 -0.07008212897521154
                  CHANNELS 3 Yrotation Xrotation Zrotation
                  JOINT leftThumbIntermediate
                  {
                    OFFSET 0.36682123028154767 -0.015768465060082004 0.28693641268151077
                    CHANNELS 3 Yrotation Xrotation Zrotation
                    JOINT leftThumbDistal
                    {
                      OFFSET 0.21091084272403915 -0.016756648201192714 0.1933767059105508
                      CHANNELS 3 Yrotation Xrotation Zrotation
                      End Site
                      {
                        OFFSET 0.21091084272403915 -0.016756648201192714 0.1933767059105508
                      }
                    }
                  }
                }
              }
            }
          }
        }
        JOINT rightShoulder
        {
          OFFSET -0.37618174442811925 1.0539491987447769 0
          CHANNELS 3 Yrotation Xrotation Zrotation
          JOINT rightUpperArm
          {
            OFFSET -0.870284438 0 0
            CHANNELS 3 Yrotation Xrotation Zrotation
            JOINT rightLowerArm
            {
              OFFSET -2.1985273100003235 0 0
              CHANNELS 3 Yrotation Xrotation Zrotation
              JOINT rightHand
              {
                OFFSET -2.1468523139682802 0 0
                CHANNELS 3 Yrotation Xrotation Zrotation
                JOINT rightIndexProximal
                {
                  OFFSET -0.6585177834681599 0.07380250427007962 0.18382213159631788
                  CHANNELS 3 Yrotation Xrotation Zrotation
                  JOINT rightIndexIntermediate
                  {
                    OFFSET -0.3323021288626682 -0.009606893929485771 -0.012820872253340998
                    CHANNELS 3 Yrotation Xrotation Zrotation
                    JOINT rightIndexDistal
                    {
                      OFFSET -0.2045908926985518 -0.0071133989147997845 -0.006828784783599051
                      CHANNELS 3 Yrotation Xrotation Zrotation
                      End Site
                      {
                        OFFSET -0.2045908926985518 -0.0071133989147997845 -0.006828784783599051
                      }
                    }
                  }
                }
                JOINT rightLittleProximal
                {
                  OFFSET -0.6110054258835662 0.07380246363125398 -0.29175655876064077
                  CHANNELS 3 Yrotation Xrotation Zrotation
                  JOINT rightLittleIntermediate
                  {
                    OFFSET -0.3144281999999998 -2.5124724523095665e-9 1.8658118799974588e-7
                    CHANNELS 3 Yrotation Xrotation Zrotation
                    JOINT rightLittleDistal
                    {
                      OFFSET -0.18116185580251631 0.002815456192251098 0.0034826415518049436
                      CHANNELS 3 Yrotation Xrotation Zrotation
                      End Site
                      {
                        OFFSET -0.18116185580251631 0.002815456192251098 0.0034826415518049436
                      }
                    }
                  }
                }
                JOINT rightMiddleProximal
                {
                  OFFSET -0.6637478005691111 0.07380246480054087 0.02046981859247815
                  CHANNELS 3 Yrotation Xrotation Zrotation
                  JOINT rightMiddleIntermediate
                  {
                    OFFSET -0.3705733999999994 -2.9611069152224445e-9 9.35054791928458e-8
                    CHANNELS 3 Yrotation Xrotation Zrotation
                    JOINT rightMiddleDistal
                    {
                      OFFSET -0.22861063500000056 -1.82673876025774e-9 -1.6740782024515788e-7
                      CHANNELS 3 Yrotation Xrotation Zrotation
                      End Site
                      {
                        OFFSET -0.22861063500000056 -1.82673876025774e-9 -1.6740782024515788e-7
                      }
                    }
                  }
                }
                JOINT rightRingProximal
                {
                  OFFSET -0.6561845547265777 0.07380246406440083 -0.13588087571513918
                  CHANNELS 3 Yrotation Xrotation Zrotation
                  JOINT rightRingIntermediate
                  {
                    OFFSET -0.3437531000000005 -2.746796123886952e-9 1.4935781944558357e-7
                    CHANNELS 3 Yrotation Xrotation Zrotation
                    JOINT rightRingDistal
                    {
                      OFFSET -0.1983118991198174 -0.002467117924596085 -0.004538141969590015
                      CHANNELS 3 Yrotation Xrotation Zrotation
                      End Site
                      {
                        OFFSET -0.1983118991198174 -0.002467117924596085 -0.004538141969590015
                      }
                    }
                  }
                }
                JOINT rightThumbProximal
                {
                  OFFSET -0.09767004258864787 -0.14930060425447422 -0.07008212897521154
                  CHANNELS 3 Yrotation Xrotation Zrotation
                  JOINT rightThumbIntermediate
                  {
                    OFFSET -0.36682123028154767 -0.015768465060082004 0.28693641268151077
                    CHANNELS 3 Yrotation Xrotation Zrotation
                    JOINT rightThumbDistal
                    {
                      OFFSET -0.21091084272403915 -0.016756648201192714 0.1933767059105508
                      CHANNELS 3 Yrotation Xrotation Zrotation
                      End Site
                      {
                        OFFSET -0.21091084272403915 -0.016756648201192714 0.1933767059105508
                      }
                    }
                  }
                }
              }
            }
          }
        }
      }
    }
  }
  JOINT leftUpperLeg
  {
    OFFSET 0.7715603 -0.3993844658041501 0
    CHANNELS 3 Yrotation Xrotation Zrotation
    JOINT leftLowerLeg
    {
      OFFSET 0 -3.529830000249343 0
      CHANNELS 3 Yrotation Xrotation Zrotation
      JOINT leftFoot
      {
        OFFSET 0 -4.154939295409685 0.004208579085223096
        CHANNELS 3 Yrotation Xrotation Zrotation
        JOINT leftToes
        {
          OFFSET 0 -0.6353414391261847 1.10414981190622
          CHANNELS 3 Yrotation Xrotation Zrotation
          End Site
          {
            OFFSET 0 -0.6015820691747853 1.10414981190622
          }
        }
      }
    }
  }
  JOINT rightUpperLeg
  {
    OFFSET -0.7715603 -0.3993844658041501 0
    CHANNELS 3 Yrotation Xrotation Zrotation
    JOINT rightLowerLeg
    {
      OFFSET 0 -3.529830000249343 0
      CHANNELS 3 Yrotation Xrotation Zrotation
      JOINT rightFoot
      {
        OFFSET 0 -4.154939295409685 0.004208579085223096
        CHANNELS 3 Yrotation Xrotation Zrotation
        JOINT rightToes
        {
          OFFSET 0 -0.6353414391261847 1.10414981190622
          CHANNELS 3 Yrotation Xrotation Zrotation
          End Site
          {
            OFFSET 0 -0.6015820691747853 1.10414981190622
          }
        }
      }
    }
  }
}
MOTION
Frames: 4
Frame Time: 0.03333333333333333
1.8422956900163128 9.149416143243961 0.7062249654860592 -6.340610552069915 3.3269802063509286 -3.8797715948165097 -1.2187819049110904 11.43966476398069 8.34124942626069 -0.485505006289305 4.49059596636558 1.3944492443029644 0 0 0 -2.2414521803894667 -14.845069009416198 -5.106488117530348 -20.85239897181259 -6.97234999499028 14.913230226205782 0 0 0 0 0 0 -12.047393445556704 2.9323824667365823 10.563449223293924 -26.745631478602768 -2.08923746867255 -25.66563389232771 -64.57240026428488 -0.000053876506196129884 0.00004794975495736733 -0.7361733588008238 23.332238800749426 8.887498715836532 1.1173153948789638 0.09086103742605053 -9.34066674965167 1.3724839831610869 0.1365550074570652 -11.347458795955182 1.4715524306233971 0.15992391106865833 -12.350771030186532 5.490096954880736 0.8848139782724396 -10.040023561250917 -2.577627766120281 0.20939920510784343 -13.102743546443659 1.6123454128366903 0.24140633330362332 -13.595893966392394 0.9450649120007322 0.06487087609009207 -7.8850915312513274 1.325300070232193 0.12748505244138747 -11.028799915102677 1.4886743518621903 0.16186945543628528 -12.411383587439184 0.997767145722421 0.07236113104669355 -8.29039809458839 1.3757100537660407 0.1383700554115297 -11.475200623667108 1.5423463916673437 0.17436474002709898 -12.887416758524482 15.648992224758006 -1.5698007557790052 7.524435156531652 18.464893211789338 4.27448813736736 2.8658251462201654 12.233271748273262 0.15714880258937208 3.5498086976147616 9.942079948773422 2.093557666311033 -3.7960919107175797 39.250767618959394 -13.560395151915657 19.00170428028225 57.55341563904071 0.0000017993149970610191 -0.00001360194976941614 58.141626607040706 42.88138264085494 55.197870629117595 -4.925074738004831 2.0302157396736726 44.630317119112725 -3.5135646150805795 0.9589177339570527 30.4533953815688 -2.7796695926148134 0.5724055742904679 23.35748509406265 -5.189349894338566 2.3066361885083224 48.40028934722888 -3.860785801684467 1.1226073324732817 34.229086547580934 -3.2541125322601303 0.7236260197658788 27.134317413206887 -4.273185157423567 1.4587550555630313 37.21681779852692 -3.680491475313799 1.0840266855184484 32.66588421155249 -3.104924188220591 0.7084105852485311 26.047221075823106 -4.327139900983565 1.5011476400142307 38.396743865886535 -3.938514037664001 1.2038253140350925 34.06520091853609 -3.2355004541381653 0.7984571351136339 27.48934990163631 -15.636740936186523 -1.853931817449671 -7.982125411367181 -19.051062334048623 4.959163652611574 -2.5539679280561756 -10.42517362469443 -0.5645423054975869 -3.0524012201914217 3.177708866747052 -17.067305727568602 7.308570441847126 -5.121354371872587 22.219948969820777 -3.8379815745106804 0.024968052263849714 5.853416297301519 -10.89503973646196 -0.046451216715206044 -11.85780740315007 2.11353119364927 8.370377588866857 -8.397439309321163 0.9883258507634395 -10.121188551974106 10.931054930383565 -1.1725191423322496 -14.664101929580795 1.3732771948490141 4.68706021379406 0.000004815187924516823 -5.407258168752064 4.999079471555712e-7
1.828334331512451 9.087627584284 0.6715720171065426 -7.898263662686744 3.4246666859159944 -4.483274504132808 0.36822799166747733 12.619283903885275 9.696667417816403 -0.1270510891833016 3.270237030659733 -0.3931703566007953 0 0 0 -3.033127476210003 -14.590587975663645 -6.626425573418072 -27.211710438044353 -4.154862978075022 17.559762123765346 0 0 0 0 0 0 -11.07101090778799 2.411599090084851 4.122874118106923 -33.85260401742956 -8.83214988114451 -22.681254697003936 -62.97165050623018 -0.0000697693021270877 0.00003954783398108654 -0.816621522909027 40.35376497309158 9.751545134907756 1.1584478577677515 0.09772360592072256 -9.68624118096487 1.3929082083952518 0.14071451145718364 -11.520236034340952 1.4817409200808354 0.16215987303920704 -12.437148507215667 5.526391014840969 0.9180025066672565 -10.384129205980786 -2.5574444609669955 0.21478248493468746 -13.275498278442837 1.6224029618519338 0.244158577402317 -13.682282406821898 0.9786292752689807 0.06958457030724545 -8.16588965672606 1.3481544155276444 0.1319835306154465 -11.221824238796598 1.5012027705619526 0.16463596008459297 -12.517757045433758 1.031288728015254 0.07732948425865431 -8.571183283858547 1.3985272430194575 0.14305010980924995 -11.668219936034673 1.5548683616164587 0.17724315804412843 -12.993788782013375 15.64896643194855 -1.5697940297872401 7.52443685001098 18.464893211789338 4.27448813736736 2.8658251462201654 12.233271748273262 0.15714880258937208 3.5498086976147616 12.361213549710758 2.3879945988430573 -1.1889330668097056 42.040237525210586 -28.492527123148744 21.205299004192074 45.00371401865604 -0.0000036677037031389422 -0.000005489637380206013 57.22030057231966 46.85668251438534 50.55001582619902 -4.615917806937792 1.7415422810422625 41.17030189590489 -3.329500930080731 0.8547678754454068 28.72121506501948 -2.6822910523072507 0.5312527888467684 22.490861714478623 -4.8963644782426705 2.0015242083536204 44.94110724992642 -3.6815313221798327 1.0102810849534822 32.49734493257104 -3.1589611951650456 0.6774707668714618 26.267946260909255 -3.9961191171641395 1.255431381386098 34.40385845902023 -3.478750483338736 0.9610683714755952 30.731080734691485 -2.9873746513440875 0.6523731473638013 24.980280787731587 -4.052078191026659 1.2951145786529419 35.58392741725706 -3.740717399167395 1.0746239021498867 32.13070597505436 -3.119603074092334 0.7390906144972823 26.422585495848033 -15.636731789148815 -1.8539316038944746 -7.98214111285321 -19.051062334048623 4.959163652611574 -2.5539679280561756 -10.42517362469443 -0.5645423054975869 -3.0524012201914217 -0.915866865274839 -16.897105393476483 5.301868391740355 -4.5927389383449535 23.471033536406086 -5.3659051115635545 0.10380842604927275 3.458205339642523 -5.033589801234211 -0.011554849777102184 -13.068227765880978 1.049894013339024 10.166512332561172 -9.681317643088924 1.1954069329511925 -11.233899403909328 27.34708040987661 -1.6342727296120378 -11.211063709111446 -3.2909613432618228 3.07404593945506 -0.000007396456153701174 -6.967870436074957 -0.000001577067045234319
1.8139792572368276 8.89846628362482 0.6294024353464829 -10.37562855014092 2.0314506451216494 -3.8633859669527033 3.0731761580798027 14.539934679159549 9.912405743812188 0.5630641714840533 2.530997705038044 -2.5195324088505138 0 0 0 -4.225580722729362 -13.523657884516709 -7.647384496197737 -34.55928213617297 -1.370973373113622 19.336323793096458 0 0 0 0 0 0 -10.130496875038444 2.141114806497687 -0.8570490496552698 -43.80905534850568 -14.176229864906702 -21.378252879126045 -55.28607071206234 -0.000059351260005317835 0.000028309144020860805 -1.2487128170452082 53.56336782650695 10.63993949098721 1.2217504011866571 0.1087943600452112 -10.218597602207117 1.4243760176431584 0.14722673052707866 -11.78637755643979 1.4974220149925666 0.16564162957574038 -12.570217675959944 5.58191526954012 0.9695318568254321 -10.91415302961236 -2.526435588963798 0.2231885481962389 -13.541616622214685 1.6378951755778874 0.24843826406891448 -13.81532310445142 1.0302724869637523 0.07717365708636124 -8.59845358911022 1.3833592299351187 0.13904383153517794 -11.519165904517715 1.5205120499905382 0.16897073399962145 -12.681640751834909 1.0828758378525736 0.08532488241354566 -9.003742316921183 1.4336700777972844 0.15039904393178546 -11.96555494754003 1.5741219930082608 0.181714405908003 -13.157664032844293 15.648993869627754 -1.569796912355137 7.524448304998183 18.464893211789338 4.27448813736736 2.8658251462201654 12.233271748273262 0.15714880258937208 3.5498086976147616 15.268891367279812 2.7093074130543036 0.2761288216895198 42.995171297507625 -43.49862808679307 22.594263907746615 29.673331361362433 -0.000015225379787259412 0.000004463801527018989 43.21168611388766 47.281834339122554 34.617431930008316 -3.9012593238870563 1.1907570560159546 33.78154481919048 -2.9266147540125838 0.651417872905488 25.023055941957466 -2.4723934093525033 0.4483049475883485 20.640926342081492 -4.212746944787283 1.4125549192801494 37.55444133458986 -3.28808163457781 0.78894443691664 28.800093544975507 -2.9536256690451976 0.583768812699118 24.418465693232715 -3.373419404371001 0.8683104699262626 28.39721688386684 -3.0349743223617742 0.7217664061961399 26.60014009194991 -2.7331425070760234 0.540154782071443 22.70263215626949 -3.433212550680802 0.9019245615305121 29.57761818722379 -3.304615806136779 0.8215756871939652 28.00046360568129 -2.8686747904026264 0.6196681861676672 24.145263572077997 -15.636758309284083 -1.8539358749984152 -7.982148726354478 -19.051062334048623 4.959163652611574 -2.5539679280561756 -10.42517362469443 -0.5645423054975869 -3.0524012201914217 -4.188032351999482 -16.099748204624323 3.1682558270652996 3.1968180489783635 27.085690460645797 -4.049557814911909 -0.4772629126604984 -3.616733467750568 5.099885856617075 0.000006331923457675085 -10.948040350847407 -0.0000052129618184314795 8.96950605983169 -9.740944120614866 0.24024605933459953 -15.1303836132226 48.25992634674154 -7.060199451231856 -6.775574785011505 -5.293722982940439 1.1627988825785418 -0.000008794494375848172 -7.336043197779284 1.235127974811788e-7
1.8014361641623755 8.637749065052377 0.5746711205139688 -13.483021578313101 -0.3202177973335458 -2.1131428950388855 6.57535745248792 16.456669567828204 8.942974125192476 1.4640319049865347 3.2769911561673744 -5.0769918842323944 0 0 0 -5.965787032680134 -12.28073863513221 -7.2951182382092155 -42.25802116584204 0.5237361672730013 20.29156816265242 0 0 0 0 0 0 -10.254454427644173 2.1183808260862196 -2.123232210429799 -53.81867435039623 -20.046426186736053 -22.144547871989065 -44.8110145550091 -0.000049730217458293566 0.000027608838193766108 -2.8392131503933205 56.06547915256841 9.241428923464495 1.2892020526712262 0.12124332539070412 -10.786882610813642 1.4579275390639759 0.15435341728105745 -12.070512090006922 1.5141629703185733 0.1693874974177138 -12.712273285848289 5.640673651541068 1.0251072820883174 -11.479929217951305 -2.493341465332347 0.23230433476121481 -13.825692775780782 1.6544169668382103 0.2530414020817784 -13.957342179573866 1.085356620412832 0.08569769509757864 -9.060220134775973 1.420866598488082 0.14680365761221245 -11.836596214576081 1.5411187185156539 0.17361987244709173 -12.856562559784445 1.1378895781650202 0.09426877933114056 -9.465501355610005 1.471142081998757 0.1584463300091575 -12.282966232890393 1.5946832816993872 0.18656653332130557 -13.332596398420417 15.648981433994752 -1.5697975529257813 7.524430922833277 18.464893211789338 4.27448813736736 2.8658251462201654 12.233271748273262 0.15714880258937208 3.5498086976147616 17.5433333140937 3.0350906675971197 0.05073120071323099 42.53590860347448 -53.0512075212444 22.518773584641917 17.935435903741237 0.000009914205620229541 -0.000002773870131007875 20.676690979285816 35.11475153197165 14.362730483585283 -2.94264921649649 0.6501119952435855 24.757859238602723 -2.4185048490505276 0.43908781117150036 20.508455949708623 -2.2128311355655965 0.3563381486689166 18.383059023627585 -3.2849952724417797 0.820344952868915 28.533439918242856 -2.78994855132066 0.5539114634462727 24.2864720566819 -2.699125858375798 0.47850737810425786 22.16115062493665 -2.564018162102758 0.4874328314653823 21.062623508308004 -2.47190662024043 0.47399294735575026 21.556935291676737 -2.4171704346323217 0.41703777086424504 19.92256412909713 -2.627648963425548 0.513134479256987 22.243380773946665 -2.7495520133425146 0.5563599877480381 22.958074160688184 -2.556319085528233 0.48759318663298856 21.36555368383802 -15.63675172843651 -1.8539403596575645 -7.982125411367181 -19.051062334048623 4.959163652611574 -2.5539679280561756 -10.42517362469443 -0.5645423054975869 -3.0524012201914217 -3.3479966248114867 -16.460811023056475 1.2872313461713787 9.575851850575546 34.05869164157103 -1.8907178675942715 -1.344002461568809 -15.182807026907556 7.1981138320626386 0.0000032028800433425295 -4.646245099460437 -0.000003871648312322899 6.512572908008795 -7.836008867032466 -2.869095674027338 -26.752128402102375 67.46586787963479 -22.859503724669835 -4.573865101439122 -6.672116827704573 0.16696912872810046 0.000003785918223968437 -5.907723759595299 -0.000004676292618530677
